<svg data-v-2cb57da0="" version="1.0"
    xmlns="http://www.w3.org/2000/svg"
    xmlns:xlink="http://www.w3.org/1999/xlink" width="100%" height="100%" viewBox="0 0 340.000000 250.000000" preserveAspectRatio="xMidYMid meet" color-interpolation-filters="sRGB" style="margin: auto;">
    <g data-v-2cb57da0="" fill="#FCEDD8" class="basesvg" transform="translate(62.040496826171875,77.68249893188477)">
        <g fill-rule="" class="tp-name">
            <g transform="scale(2.6999999999999997)">
                <g>
                    <g transform="translate(0, 8.9)" fill-opacity="0">
                        <path d="M11.43 2.28Q10.36 2.28 9.01 1.8 7.66 1.33 5.57 0.44L5.57 0.44 4.32-0.1Q2.9 1.39 1.28 1.39L1.28 1.39Q0.42 1.39-0.26 0.99-0.94 0.6-1.31 0.04-1.67-0.52-1.67-1.05L-1.67-1.05Q-1.67-1.62-1.16-1.99-0.65-2.35 0.47-2.35L0.47-2.35Q1.75-2.35 3.77-1.83L3.77-1.83Q4.37-2.93 4.93-4.45 5.49-5.96 6.22-8.29L6.22-8.29 6.88-10.3Q5.6-10.72 4.88-11.51 4.16-12.29 4.16-13.16L4.16-13.16Q4.16-13.99 4.77-14.7 5.39-15.4 6.36-15.4L6.36-15.4Q5.83-14.72 5.83-13.63L5.83-13.63Q5.83-12.82 6.21-12.2 6.59-11.59 7.19-11.22L7.19-11.22Q8.37-14.78 9.7-16.8 11.04-18.83 12.97-18.83L12.97-18.83Q14.07-18.83 14.97-18.16 15.88-17.5 15.88-16.01L15.88-16.01Q15.88-14.67 15.13-13.27 14.38-11.87 12.82-10.91 11.25-9.94 8.92-9.94L8.92-9.94Q7.98-7.09 7.14-5 6.3-2.9 5.34-1.41L5.34-1.41Q7.69-0.71 9.35-0.3 11.01 0.1 12.27 0.1L12.27 0.1Q12.87 0.1 13.4-0.03 13.94-0.16 14.57-0.47L14.57-0.47Q14.04 0.97 13.29 1.62 12.53 2.28 11.43 2.28L11.43 2.28ZM9.21-10.8Q10.62-10.91 11.72-11.91 12.82-12.92 13.43-14.27 14.04-15.61 14.04-16.63L14.04-16.63Q14.04-17.81 13.18-17.81L13.18-17.81Q12.14-17.81 11.25-16.05 10.36-14.28 9.21-10.8L9.21-10.8ZM1.02 0.42Q1.62 0.42 2.03 0.17 2.43-0.08 2.96-0.63L2.96-0.63Q1.1-1.31 0.21-1.31L0.21-1.31Q-0.26-1.31-0.5-1.14-0.73-0.97-0.73-0.68L-0.73-0.68Q-0.73-0.24-0.21 0.09 0.31 0.42 1.02 0.42L1.02 0.42ZM17.55 0.78Q16.69 0.78 16.11-0.03 15.54-0.84 15.54-1.94L15.54-1.94Q15.54-2.88 15.95-4.29 16.37-5.7 16.93-6.75 17.5-7.79 17.92-7.79L17.92-7.79Q18.1-7.79 18.48-7.6 18.86-7.4 19.14-7.11L19.14-7.11Q18.6-6.3 18.01-4.79 17.42-3.27 17.42-2.17L17.42-2.17Q17.42-1.67 17.56-1.14 17.71-0.6 18.2-0.6L18.2-0.6Q19.17-0.6 20.52-2.76 21.86-4.92 22.83-7.14L22.83-7.14Q24.4-6.88 24.4-6.25L24.4-6.25Q24.4-6.2 24.09-5.49L24.09-5.49Q23.54-4.21 23.15-3.11 22.75-2.01 22.75-1.2L22.75-1.2Q22.75-0.29 23.46-0.29L23.46-0.29Q24.01-0.29 24.78-0.8 25.55-1.31 26.36-2.26 27.17-3.22 27.78-4.47L27.78-4.47 28.17-4.16Q27.59-2.75 26.68-1.62 25.76-0.5 24.7 0.14 23.64 0.78 22.68 0.78L22.68 0.78Q21.52 0.78 21.2-0.01 20.87-0.81 20.87-2.14L20.87-2.14Q19.98-0.78 19.2 0 18.41 0.78 17.55 0.78L17.55 0.78ZM30.05 1.46Q28.64 1.46 27.79 0.59 26.94-0.29 26.94-1.99L26.94-1.99Q26.94-3.66 27.79-5.26 28.64-6.85 30-7.85 31.36-8.84 32.74-8.84L32.74-8.84Q33.79-8.84 34.3-8.32 34.81-7.79 34.81-7.01L34.81-7.01Q34.81-6.22 34.43-5.56 34.05-4.89 33.5-4.89L33.5-4.89Q33.01-4.89 32.69-5.39L32.69-5.39Q33.01-5.6 33.27-6.12 33.53-6.64 33.53-7.35L33.53-7.35Q33.53-7.79 33.03-7.79L33.03-7.79Q32.2-7.79 31.23-6.8 30.26-5.81 29.61-4.39 28.95-2.98 28.95-1.83L28.95-1.83Q28.95-0.99 29.37-0.43 29.79 0.13 30.81 0.13L30.81 0.13Q31.8 0.13 32.89-0.44 33.97-1.02 34.92-2.08 35.86-3.14 36.41-4.52L36.41-4.52 36.93-4.05Q36.3-2.48 35.19-1.23 34.08 0.03 32.72 0.75 31.36 1.46 30.05 1.46L30.05 1.46ZM44.1 0.99Q43.08 0.99 42.37 0.17 41.66-0.65 41.32-1.8 40.98-2.96 40.98-3.87L40.98-3.87Q44.36-4.63 44.36-6.2L44.36-6.2Q44.36-6.67 44.06-6.96 43.76-7.24 43.21-7.24L43.21-7.24Q41.61-7.24 40.39-5.22 39.18-3.19 38.18-0.52L38.18-0.52Q37.9 0.26 37.64 0.54 37.37 0.81 36.88 0.81L36.88 0.81Q36.46 0.81 36.16 0.44 35.86 0.08 35.86-1.15L35.86-1.15Q35.86-4.16 37.4-8.3 38.94-12.45 40.93-15.56 42.92-18.67 43.96-18.67L43.96-18.67Q44.41-18.67 44.71-18.12 45.01-17.58 45.01-16.76L45.01-16.76Q45.01-15.59 44.32-14.06 43.62-12.53 42.38-11.12 41.14-9.7 39.6-8.79L39.6-8.79Q38.92-7.17 38.5-5.51 38.08-3.84 37.98-2.48L37.98-2.48Q40.8-8.97 43.78-8.97L43.78-8.97Q44.83-8.97 45.61-8.23 46.4-7.48 46.4-6.41L46.4-6.41Q46.4-5.44 45.74-4.75 45.09-4.05 44.2-3.7 43.31-3.35 42.63-3.32L42.63-3.32Q42.89-2.12 43.35-1.19 43.81-0.26 44.7-0.26L44.7-0.26Q45.64-0.26 46.68-1.5 47.73-2.75 48.59-4.66L48.59-4.66 48.96-4.21Q48.23-2.09 46.87-0.55 45.51 0.99 44.1 0.99L44.1 0.99ZM40.36-10.57Q41.64-11.69 42.7-13.27 43.76-14.86 43.78-16.22L43.78-16.22Q43.36-16.03 42.34-14.38 41.32-12.74 40.36-10.57L40.36-10.57ZM53.07-11.01Q52.52-11.01 52.14-11.27 51.76-11.53 51.76-12.03L51.76-12.03Q51.76-12.63 52.43-13.09 53.09-13.55 53.85-13.55L53.85-13.55Q54.98-13.55 54.98-12.58L54.98-12.58Q54.98-12.03 54.37-11.52 53.77-11.01 53.07-11.01L53.07-11.01ZM49.98 0.78Q48.88 0.78 48.28 0.13 47.68-0.52 47.68-1.54L47.68-1.54Q47.68-2.59 48.27-4.38 48.86-6.17 49.76-7.53 50.66-8.89 51.58-8.89L51.58-8.89Q51.92-8.89 52.14-8.7 52.36-8.5 52.36-8.13L52.36-8.13Q52.36-7.9 52.15-7.49 51.94-7.09 51.47-6.33L51.47-6.33Q50.63-4.94 50.15-3.88 49.67-2.82 49.67-1.88L49.67-1.88Q49.67-1.07 49.95-0.78 50.24-0.5 50.84-0.5L50.84-0.5Q52.91-0.5 54.95-4.5L54.95-4.5 55.34-4.08Q54.43-1.78 53.01-0.5 51.6 0.78 49.98 0.78L49.98 0.78ZM63.08 0.52Q62.09 0.52 61.54 0.03 60.99-0.47 60.99-1.28L60.99-1.28Q60.99-1.62 61.11-2.07 61.23-2.51 61.36-2.96L61.36-2.96Q61.72-4.16 61.72-4.73L61.72-4.73Q61.72-5.26 61.46-5.51 61.2-5.75 60.81-5.75L60.81-5.75Q59.42-5.75 58.01-4.01 56.6-2.28 54.98 0.39L54.98 0.39Q53.85 0.39 53.28-0.37L53.28-0.37 53.51-1.02Q55.05-4.76 55.05-6.56L55.05-6.56Q55.26-6.8 55.66-7 56.05-7.19 56.41-7.19L56.41-7.19Q56.86-7.19 57.09-6.98 57.33-6.77 57.33-6.41L57.33-6.41Q57.33-5.7 56.88-4.08L56.88-4.08Q58.06-5.65 59.33-6.64 60.6-7.64 61.83-7.64L61.83-7.64Q62.87-7.64 63.45-6.92 64.02-6.2 64.02-5.2L64.02-5.2Q64.02-4.63 63.88-4.11 63.74-3.58 63.45-2.93L63.45-2.93Q63-1.83 63-1.28L63-1.28Q63-0.89 63.19-0.71 63.37-0.52 63.63-0.52L63.63-0.52Q64.5-0.52 65.5-1.71 66.51-2.9 67.32-4.52L67.32-4.52 67.76-4.16Q66.82-1.99 65.69-0.73 64.55 0.52 63.08 0.52L63.08 0.52ZM67.95 7.32Q67.22 7.32 66.69 6.89 66.17 6.46 66.17 5.65L66.17 5.65Q66.17 4.63 66.94 3.79 67.71 2.96 68.73 2.37 69.75 1.78 71.43 0.99L71.43 0.99Q72.08-0.65 72.47-2.28L72.47-2.28Q70.35 0.39 68.5 0.39L68.5 0.39Q67.45 0.39 66.84-0.34 66.22-1.07 66.22-2.28L66.22-2.28Q66.22-4.03 67.37-5.6 68.52-7.17 70.22-8.12 71.92-9.08 73.47-9.08L73.47-9.08Q74.28-9.08 74.71-8.79 75.14-8.5 75.14-8.08L75.14-8.08Q75.14-7.82 74.98-7.61 74.83-7.4 74.72-7.38L74.72-7.38Q74.46-7.64 74.2-7.74 73.94-7.85 73.54-7.85L73.54-7.85Q72.26-7.85 71.06-6.89 69.86-5.94 69.11-4.59 68.37-3.24 68.37-2.17L68.37-2.17Q68.37-1.65 68.59-1.37 68.81-1.1 69.18-1.1L69.18-1.1Q69.88-1.1 70.92-2.01 71.95-2.93 72.97-4.37L72.97-4.37Q73.26-5.83 73.65-6.47 74.04-7.11 74.77-7.11L74.77-7.11Q75.11-7.11 75.53-7.01L75.53-7.01Q75.53-6.33 74.96-4.29 74.38-2.25 73.57-0.05L73.57-0.05Q74.88-0.6 76.09-1.77 77.31-2.93 77.83-4.45L77.83-4.45 78.3-3.98Q77.73-2.33 76.25-0.99 74.77 0.34 73.23 1.05L73.23 1.05Q72.03 3.95 70.73 5.64 69.44 7.32 67.95 7.32L67.95 7.32ZM67.84 6.12Q68.37 6.12 69.2 5.15 70.04 4.18 70.93 2.22L70.93 2.22Q69.23 3.06 68.29 3.81 67.35 4.55 67.35 5.39L67.35 5.39Q67.35 5.73 67.49 5.92 67.63 6.12 67.84 6.12L67.84 6.12Z" transform="translate(1.6700000762939453, 18.829999923706055)"></path>
                    </g>
                    <g filter="url(#text-effect-sticker-shadow-XtoeZqZdqXl0JO6v4-JfZ)" stroke="#990000" stroke-width="8.9" stroke-linecap="round" stroke-linejoin="round" paint-order="stroke">
                        <path d="M11.43 2.28Q10.36 2.28 9.01 1.8 7.66 1.33 5.57 0.44L5.57 0.44 4.32-0.1Q2.9 1.39 1.28 1.39L1.28 1.39Q0.42 1.39-0.26 0.99-0.94 0.6-1.31 0.04-1.67-0.52-1.67-1.05L-1.67-1.05Q-1.67-1.62-1.16-1.99-0.65-2.35 0.47-2.35L0.47-2.35Q1.75-2.35 3.77-1.83L3.77-1.83Q4.37-2.93 4.93-4.45 5.49-5.96 6.22-8.29L6.22-8.29 6.88-10.3Q5.6-10.72 4.88-11.51 4.16-12.29 4.16-13.16L4.16-13.16Q4.16-13.99 4.77-14.7 5.39-15.4 6.36-15.4L6.36-15.4Q5.83-14.72 5.83-13.63L5.83-13.63Q5.83-12.82 6.21-12.2 6.59-11.59 7.19-11.22L7.19-11.22Q8.37-14.78 9.7-16.8 11.04-18.83 12.97-18.83L12.97-18.83Q14.07-18.83 14.97-18.16 15.88-17.5 15.88-16.01L15.88-16.01Q15.88-14.67 15.13-13.27 14.38-11.87 12.82-10.91 11.25-9.94 8.92-9.94L8.92-9.94Q7.98-7.09 7.14-5 6.3-2.9 5.34-1.41L5.34-1.41Q7.69-0.71 9.35-0.3 11.01 0.1 12.27 0.1L12.27 0.1Q12.87 0.1 13.4-0.03 13.94-0.16 14.57-0.47L14.57-0.47Q14.04 0.97 13.29 1.62 12.53 2.28 11.43 2.28L11.43 2.28ZM9.21-10.8Q10.62-10.91 11.72-11.91 12.82-12.92 13.43-14.27 14.04-15.61 14.04-16.63L14.04-16.63Q14.04-17.81 13.18-17.81L13.18-17.81Q12.14-17.81 11.25-16.05 10.36-14.28 9.21-10.8L9.21-10.8ZM1.02 0.42Q1.62 0.42 2.03 0.17 2.43-0.08 2.96-0.63L2.96-0.63Q1.1-1.31 0.21-1.31L0.21-1.31Q-0.26-1.31-0.5-1.14-0.73-0.97-0.73-0.68L-0.73-0.68Q-0.73-0.24-0.21 0.09 0.31 0.42 1.02 0.42L1.02 0.42ZM17.55 0.78Q16.69 0.78 16.11-0.03 15.54-0.84 15.54-1.94L15.54-1.94Q15.54-2.88 15.95-4.29 16.37-5.7 16.93-6.75 17.5-7.79 17.92-7.79L17.92-7.79Q18.1-7.79 18.48-7.6 18.86-7.4 19.14-7.11L19.14-7.11Q18.6-6.3 18.01-4.79 17.42-3.27 17.42-2.17L17.42-2.17Q17.42-1.67 17.56-1.14 17.71-0.6 18.2-0.6L18.2-0.6Q19.17-0.6 20.52-2.76 21.86-4.92 22.83-7.14L22.83-7.14Q24.4-6.88 24.4-6.25L24.4-6.25Q24.4-6.2 24.09-5.49L24.09-5.49Q23.54-4.21 23.15-3.11 22.75-2.01 22.75-1.2L22.75-1.2Q22.75-0.29 23.46-0.29L23.46-0.29Q24.01-0.29 24.78-0.8 25.55-1.31 26.36-2.26 27.17-3.22 27.78-4.47L27.78-4.47 28.17-4.16Q27.59-2.75 26.68-1.62 25.76-0.5 24.7 0.14 23.64 0.78 22.68 0.78L22.68 0.78Q21.52 0.78 21.2-0.01 20.87-0.81 20.87-2.14L20.87-2.14Q19.98-0.78 19.2 0 18.41 0.78 17.55 0.78L17.55 0.78ZM30.05 1.46Q28.64 1.46 27.79 0.59 26.94-0.29 26.94-1.99L26.94-1.99Q26.94-3.66 27.79-5.26 28.64-6.85 30-7.85 31.36-8.84 32.74-8.84L32.74-8.84Q33.79-8.84 34.3-8.32 34.81-7.79 34.81-7.01L34.81-7.01Q34.81-6.22 34.43-5.56 34.05-4.89 33.5-4.89L33.5-4.89Q33.01-4.89 32.69-5.39L32.69-5.39Q33.01-5.6 33.27-6.12 33.53-6.64 33.53-7.35L33.53-7.35Q33.53-7.79 33.03-7.79L33.03-7.79Q32.2-7.79 31.23-6.8 30.26-5.81 29.61-4.39 28.95-2.98 28.95-1.83L28.95-1.83Q28.95-0.99 29.37-0.43 29.79 0.13 30.81 0.13L30.81 0.13Q31.8 0.13 32.89-0.44 33.97-1.02 34.92-2.08 35.86-3.14 36.41-4.52L36.41-4.52 36.93-4.05Q36.3-2.48 35.19-1.23 34.08 0.03 32.72 0.75 31.36 1.46 30.05 1.46L30.05 1.46ZM44.1 0.99Q43.08 0.99 42.37 0.17 41.66-0.65 41.32-1.8 40.98-2.96 40.98-3.87L40.98-3.87Q44.36-4.63 44.36-6.2L44.36-6.2Q44.36-6.67 44.06-6.96 43.76-7.24 43.21-7.24L43.21-7.24Q41.61-7.24 40.39-5.22 39.18-3.19 38.18-0.52L38.18-0.52Q37.9 0.26 37.64 0.54 37.37 0.81 36.88 0.81L36.88 0.81Q36.46 0.81 36.16 0.44 35.86 0.08 35.86-1.15L35.86-1.15Q35.86-4.16 37.4-8.3 38.94-12.45 40.93-15.56 42.92-18.67 43.96-18.67L43.96-18.67Q44.41-18.67 44.71-18.12 45.01-17.58 45.01-16.76L45.01-16.76Q45.01-15.59 44.32-14.06 43.62-12.53 42.38-11.12 41.14-9.7 39.6-8.79L39.6-8.79Q38.92-7.17 38.5-5.51 38.08-3.84 37.98-2.48L37.98-2.48Q40.8-8.97 43.78-8.97L43.78-8.97Q44.83-8.97 45.61-8.23 46.4-7.48 46.4-6.41L46.4-6.41Q46.4-5.44 45.74-4.75 45.09-4.05 44.2-3.7 43.31-3.35 42.63-3.32L42.63-3.32Q42.89-2.12 43.35-1.19 43.81-0.26 44.7-0.26L44.7-0.26Q45.64-0.26 46.68-1.5 47.73-2.75 48.59-4.66L48.59-4.66 48.96-4.21Q48.23-2.09 46.87-0.55 45.51 0.99 44.1 0.99L44.1 0.99ZM40.36-10.57Q41.64-11.69 42.7-13.27 43.76-14.86 43.78-16.22L43.78-16.22Q43.36-16.03 42.34-14.38 41.32-12.74 40.36-10.57L40.36-10.57ZM53.07-11.01Q52.52-11.01 52.14-11.27 51.76-11.53 51.76-12.03L51.76-12.03Q51.76-12.63 52.43-13.09 53.09-13.55 53.85-13.55L53.85-13.55Q54.98-13.55 54.98-12.58L54.98-12.58Q54.98-12.03 54.37-11.52 53.77-11.01 53.07-11.01L53.07-11.01ZM49.98 0.78Q48.88 0.78 48.28 0.13 47.68-0.52 47.68-1.54L47.68-1.54Q47.68-2.59 48.27-4.38 48.86-6.17 49.76-7.53 50.66-8.89 51.58-8.89L51.58-8.89Q51.92-8.89 52.14-8.7 52.36-8.5 52.36-8.13L52.36-8.13Q52.36-7.9 52.15-7.49 51.94-7.09 51.47-6.33L51.47-6.33Q50.63-4.94 50.15-3.88 49.67-2.82 49.67-1.88L49.67-1.88Q49.67-1.07 49.95-0.78 50.24-0.5 50.84-0.5L50.84-0.5Q52.91-0.5 54.95-4.5L54.95-4.5 55.34-4.08Q54.43-1.78 53.01-0.5 51.6 0.78 49.98 0.78L49.98 0.78ZM63.08 0.52Q62.09 0.52 61.54 0.03 60.99-0.47 60.99-1.28L60.99-1.28Q60.99-1.62 61.11-2.07 61.23-2.51 61.36-2.96L61.36-2.96Q61.72-4.16 61.72-4.73L61.72-4.73Q61.72-5.26 61.46-5.51 61.2-5.75 60.81-5.75L60.81-5.75Q59.42-5.75 58.01-4.01 56.6-2.28 54.98 0.39L54.98 0.39Q53.85 0.39 53.28-0.37L53.28-0.37 53.51-1.02Q55.05-4.76 55.05-6.56L55.05-6.56Q55.26-6.8 55.66-7 56.05-7.19 56.41-7.19L56.41-7.19Q56.86-7.19 57.09-6.98 57.33-6.77 57.33-6.41L57.33-6.41Q57.33-5.7 56.88-4.08L56.88-4.08Q58.06-5.65 59.33-6.64 60.6-7.64 61.83-7.64L61.83-7.64Q62.87-7.64 63.45-6.92 64.02-6.2 64.02-5.2L64.02-5.2Q64.02-4.63 63.88-4.11 63.74-3.58 63.45-2.93L63.45-2.93Q63-1.83 63-1.28L63-1.28Q63-0.89 63.19-0.71 63.37-0.52 63.63-0.52L63.63-0.52Q64.5-0.52 65.5-1.71 66.51-2.9 67.32-4.52L67.32-4.52 67.76-4.16Q66.82-1.99 65.69-0.73 64.55 0.52 63.08 0.52L63.08 0.52ZM67.95 7.32Q67.22 7.32 66.69 6.89 66.17 6.46 66.17 5.65L66.17 5.65Q66.17 4.63 66.94 3.79 67.71 2.96 68.73 2.37 69.75 1.78 71.43 0.99L71.43 0.99Q72.08-0.65 72.47-2.28L72.47-2.28Q70.35 0.39 68.5 0.39L68.5 0.39Q67.45 0.39 66.84-0.34 66.22-1.07 66.22-2.28L66.22-2.28Q66.22-4.03 67.37-5.6 68.52-7.17 70.22-8.12 71.92-9.08 73.47-9.08L73.47-9.08Q74.28-9.08 74.71-8.79 75.14-8.5 75.14-8.08L75.14-8.08Q75.14-7.82 74.98-7.61 74.83-7.4 74.72-7.38L74.72-7.38Q74.46-7.64 74.2-7.74 73.94-7.85 73.54-7.85L73.54-7.85Q72.26-7.85 71.06-6.89 69.86-5.94 69.11-4.59 68.37-3.24 68.37-2.17L68.37-2.17Q68.37-1.65 68.59-1.37 68.81-1.1 69.18-1.1L69.18-1.1Q69.88-1.1 70.92-2.01 71.95-2.93 72.97-4.37L72.97-4.37Q73.26-5.83 73.65-6.47 74.04-7.11 74.77-7.11L74.77-7.11Q75.11-7.11 75.53-7.01L75.53-7.01Q75.53-6.33 74.96-4.29 74.38-2.25 73.57-0.05L73.57-0.05Q74.88-0.6 76.09-1.77 77.31-2.93 77.83-4.45L77.83-4.45 78.3-3.98Q77.73-2.33 76.25-0.99 74.77 0.34 73.23 1.05L73.23 1.05Q72.03 3.95 70.73 5.64 69.44 7.32 67.95 7.32L67.95 7.32ZM67.84 6.12Q68.37 6.12 69.2 5.15 70.04 4.18 70.93 2.22L70.93 2.22Q69.23 3.06 68.29 3.81 67.35 4.55 67.35 5.39L67.35 5.39Q67.35 5.73 67.49 5.92 67.63 6.12 67.84 6.12L67.84 6.12Z" transform="translate(1.6700000762939453, 18.829999923706055)"></path>
                    </g>
                    <g stroke="#FCEDD8" stroke-width="6.9" stroke-linecap="round" stroke-linejoin="round" paint-order="stroke">
                        <path d="M11.43 2.28Q10.36 2.28 9.01 1.8 7.66 1.33 5.57 0.44L5.57 0.44 4.32-0.1Q2.9 1.39 1.28 1.39L1.28 1.39Q0.42 1.39-0.26 0.99-0.94 0.6-1.31 0.04-1.67-0.52-1.67-1.05L-1.67-1.05Q-1.67-1.62-1.16-1.99-0.65-2.35 0.47-2.35L0.47-2.35Q1.75-2.35 3.77-1.83L3.77-1.83Q4.37-2.93 4.93-4.45 5.49-5.96 6.22-8.29L6.22-8.29 6.88-10.3Q5.6-10.72 4.88-11.51 4.16-12.29 4.16-13.16L4.16-13.16Q4.16-13.99 4.77-14.7 5.39-15.4 6.36-15.4L6.36-15.4Q5.83-14.72 5.83-13.63L5.83-13.63Q5.83-12.82 6.21-12.2 6.59-11.59 7.19-11.22L7.19-11.22Q8.37-14.78 9.7-16.8 11.04-18.83 12.97-18.83L12.97-18.83Q14.07-18.83 14.97-18.16 15.88-17.5 15.88-16.01L15.88-16.01Q15.88-14.67 15.13-13.27 14.38-11.87 12.82-10.91 11.25-9.94 8.92-9.94L8.92-9.94Q7.98-7.09 7.14-5 6.3-2.9 5.34-1.41L5.34-1.41Q7.69-0.71 9.35-0.3 11.01 0.1 12.27 0.1L12.27 0.1Q12.87 0.1 13.4-0.03 13.94-0.16 14.57-0.47L14.57-0.47Q14.04 0.97 13.29 1.62 12.53 2.28 11.43 2.28L11.43 2.28ZM9.21-10.8Q10.62-10.91 11.72-11.91 12.82-12.92 13.43-14.27 14.04-15.61 14.04-16.63L14.04-16.63Q14.04-17.81 13.18-17.81L13.18-17.81Q12.14-17.81 11.25-16.05 10.36-14.28 9.21-10.8L9.21-10.8ZM1.02 0.42Q1.62 0.42 2.03 0.17 2.43-0.08 2.96-0.63L2.96-0.63Q1.1-1.31 0.21-1.31L0.21-1.31Q-0.26-1.31-0.5-1.14-0.73-0.97-0.73-0.68L-0.73-0.68Q-0.73-0.24-0.21 0.09 0.31 0.42 1.02 0.42L1.02 0.42ZM17.55 0.78Q16.69 0.78 16.11-0.03 15.54-0.84 15.54-1.94L15.54-1.94Q15.54-2.88 15.95-4.29 16.37-5.7 16.93-6.75 17.5-7.79 17.92-7.79L17.92-7.79Q18.1-7.79 18.48-7.6 18.86-7.4 19.14-7.11L19.14-7.11Q18.6-6.3 18.01-4.79 17.42-3.27 17.42-2.17L17.42-2.17Q17.42-1.67 17.56-1.14 17.71-0.6 18.2-0.6L18.2-0.6Q19.17-0.6 20.52-2.76 21.86-4.92 22.83-7.14L22.83-7.14Q24.4-6.88 24.4-6.25L24.4-6.25Q24.4-6.2 24.09-5.49L24.09-5.49Q23.54-4.21 23.15-3.11 22.75-2.01 22.75-1.2L22.75-1.2Q22.75-0.29 23.46-0.29L23.46-0.29Q24.01-0.29 24.78-0.8 25.55-1.31 26.36-2.26 27.17-3.22 27.78-4.47L27.78-4.47 28.17-4.16Q27.59-2.75 26.68-1.62 25.76-0.5 24.7 0.14 23.64 0.78 22.68 0.78L22.68 0.78Q21.52 0.78 21.2-0.01 20.87-0.81 20.87-2.14L20.87-2.14Q19.98-0.78 19.2 0 18.41 0.78 17.55 0.78L17.55 0.78ZM30.05 1.46Q28.64 1.46 27.79 0.59 26.94-0.29 26.94-1.99L26.94-1.99Q26.94-3.66 27.79-5.26 28.64-6.85 30-7.85 31.36-8.84 32.74-8.84L32.74-8.84Q33.79-8.84 34.3-8.32 34.81-7.79 34.81-7.01L34.81-7.01Q34.81-6.22 34.43-5.56 34.05-4.89 33.5-4.89L33.5-4.89Q33.01-4.89 32.69-5.39L32.69-5.39Q33.01-5.6 33.27-6.12 33.53-6.64 33.53-7.35L33.53-7.35Q33.53-7.79 33.03-7.79L33.03-7.79Q32.2-7.79 31.23-6.8 30.26-5.81 29.61-4.39 28.95-2.98 28.95-1.83L28.95-1.83Q28.95-0.99 29.37-0.43 29.79 0.13 30.81 0.13L30.81 0.13Q31.8 0.13 32.89-0.44 33.97-1.02 34.92-2.08 35.86-3.14 36.41-4.52L36.41-4.52 36.93-4.05Q36.3-2.48 35.19-1.23 34.08 0.03 32.72 0.75 31.36 1.46 30.05 1.46L30.05 1.46ZM44.1 0.99Q43.08 0.99 42.37 0.17 41.66-0.65 41.32-1.8 40.98-2.96 40.98-3.87L40.98-3.87Q44.36-4.63 44.36-6.2L44.36-6.2Q44.36-6.67 44.06-6.96 43.76-7.24 43.21-7.24L43.21-7.24Q41.61-7.24 40.39-5.22 39.18-3.19 38.18-0.52L38.18-0.52Q37.9 0.26 37.64 0.54 37.37 0.81 36.88 0.81L36.88 0.81Q36.46 0.81 36.16 0.44 35.86 0.08 35.86-1.15L35.86-1.15Q35.86-4.16 37.4-8.3 38.94-12.45 40.93-15.56 42.92-18.67 43.96-18.67L43.96-18.67Q44.41-18.67 44.71-18.12 45.01-17.58 45.01-16.76L45.01-16.76Q45.01-15.59 44.32-14.06 43.62-12.53 42.38-11.12 41.14-9.7 39.6-8.79L39.6-8.79Q38.92-7.17 38.5-5.51 38.08-3.84 37.98-2.48L37.98-2.48Q40.8-8.97 43.78-8.97L43.78-8.97Q44.83-8.97 45.61-8.23 46.4-7.48 46.4-6.41L46.4-6.41Q46.4-5.44 45.74-4.75 45.09-4.05 44.2-3.7 43.31-3.35 42.63-3.32L42.63-3.32Q42.89-2.12 43.35-1.19 43.81-0.26 44.7-0.26L44.7-0.26Q45.64-0.26 46.68-1.5 47.73-2.75 48.59-4.66L48.59-4.66 48.96-4.21Q48.23-2.09 46.87-0.55 45.51 0.99 44.1 0.99L44.1 0.99ZM40.36-10.57Q41.64-11.69 42.7-13.27 43.76-14.86 43.78-16.22L43.78-16.22Q43.36-16.03 42.34-14.38 41.32-12.74 40.36-10.57L40.36-10.57ZM53.07-11.01Q52.52-11.01 52.14-11.27 51.76-11.53 51.76-12.03L51.76-12.03Q51.76-12.63 52.43-13.09 53.09-13.55 53.85-13.55L53.85-13.55Q54.98-13.55 54.98-12.58L54.98-12.58Q54.98-12.03 54.37-11.52 53.77-11.01 53.07-11.01L53.07-11.01ZM49.98 0.78Q48.88 0.78 48.28 0.13 47.68-0.52 47.68-1.54L47.68-1.54Q47.68-2.59 48.27-4.38 48.86-6.17 49.76-7.53 50.66-8.89 51.58-8.89L51.58-8.89Q51.92-8.89 52.14-8.7 52.36-8.5 52.36-8.13L52.36-8.13Q52.36-7.9 52.15-7.49 51.94-7.09 51.47-6.33L51.47-6.33Q50.63-4.94 50.15-3.88 49.67-2.82 49.67-1.88L49.67-1.88Q49.67-1.07 49.95-0.78 50.24-0.5 50.84-0.5L50.84-0.5Q52.91-0.5 54.95-4.5L54.95-4.5 55.34-4.08Q54.43-1.78 53.01-0.5 51.6 0.78 49.98 0.78L49.98 0.78ZM63.08 0.52Q62.09 0.52 61.54 0.03 60.99-0.47 60.99-1.28L60.99-1.28Q60.99-1.62 61.11-2.07 61.23-2.51 61.36-2.96L61.36-2.96Q61.72-4.16 61.72-4.73L61.72-4.73Q61.72-5.26 61.46-5.51 61.2-5.75 60.81-5.75L60.81-5.75Q59.42-5.75 58.01-4.01 56.6-2.28 54.98 0.39L54.98 0.39Q53.85 0.39 53.28-0.37L53.28-0.37 53.51-1.02Q55.05-4.76 55.05-6.56L55.05-6.56Q55.26-6.8 55.66-7 56.05-7.19 56.41-7.19L56.41-7.19Q56.86-7.19 57.09-6.98 57.33-6.77 57.33-6.41L57.33-6.41Q57.33-5.7 56.88-4.08L56.88-4.08Q58.06-5.65 59.33-6.64 60.6-7.64 61.83-7.64L61.83-7.64Q62.87-7.64 63.45-6.92 64.02-6.2 64.02-5.2L64.02-5.2Q64.02-4.63 63.88-4.11 63.74-3.58 63.45-2.93L63.45-2.93Q63-1.83 63-1.28L63-1.28Q63-0.89 63.19-0.71 63.37-0.52 63.63-0.52L63.63-0.52Q64.5-0.52 65.5-1.71 66.51-2.9 67.32-4.52L67.32-4.52 67.76-4.16Q66.82-1.99 65.69-0.73 64.55 0.52 63.08 0.52L63.08 0.52ZM67.95 7.32Q67.22 7.32 66.69 6.89 66.17 6.46 66.17 5.65L66.17 5.65Q66.17 4.63 66.94 3.79 67.71 2.96 68.73 2.37 69.75 1.78 71.43 0.99L71.43 0.99Q72.08-0.65 72.47-2.28L72.47-2.28Q70.35 0.39 68.5 0.39L68.5 0.39Q67.45 0.39 66.84-0.34 66.22-1.07 66.22-2.28L66.22-2.28Q66.22-4.03 67.37-5.6 68.52-7.17 70.22-8.12 71.92-9.08 73.47-9.08L73.47-9.08Q74.28-9.08 74.71-8.79 75.14-8.5 75.14-8.08L75.14-8.08Q75.14-7.82 74.98-7.61 74.83-7.4 74.72-7.38L74.72-7.38Q74.46-7.64 74.2-7.74 73.94-7.85 73.54-7.85L73.54-7.85Q72.26-7.85 71.06-6.89 69.86-5.94 69.11-4.59 68.37-3.24 68.37-2.17L68.37-2.17Q68.37-1.65 68.59-1.37 68.81-1.1 69.18-1.1L69.18-1.1Q69.88-1.1 70.92-2.01 71.95-2.93 72.97-4.37L72.97-4.37Q73.26-5.83 73.65-6.47 74.04-7.11 74.77-7.11L74.77-7.11Q75.11-7.11 75.53-7.01L75.53-7.01Q75.53-6.33 74.96-4.29 74.38-2.25 73.57-0.05L73.57-0.05Q74.88-0.6 76.09-1.77 77.31-2.93 77.83-4.45L77.83-4.45 78.3-3.98Q77.73-2.33 76.25-0.99 74.77 0.34 73.23 1.05L73.23 1.05Q72.03 3.95 70.73 5.64 69.44 7.32 67.95 7.32L67.95 7.32ZM67.84 6.12Q68.37 6.12 69.2 5.15 70.04 4.18 70.93 2.22L70.93 2.22Q69.23 3.06 68.29 3.81 67.35 4.55 67.35 5.39L67.35 5.39Q67.35 5.73 67.49 5.92 67.63 6.12 67.84 6.12L67.84 6.12Z" transform="translate(1.6700000762939453, 18.829999923706055)"></path>
                    </g>
                    <g stroke="#990000" stroke-width="2" stroke-linecap="round" stroke-linejoin="round" paint-order="stroke" data-gra-ignore-stroke="true">
                        <path d="M11.43 2.28Q10.36 2.28 9.01 1.8 7.66 1.33 5.57 0.44L5.57 0.44 4.32-0.1Q2.9 1.39 1.28 1.39L1.28 1.39Q0.42 1.39-0.26 0.99-0.94 0.6-1.31 0.04-1.67-0.52-1.67-1.05L-1.67-1.05Q-1.67-1.62-1.16-1.99-0.65-2.35 0.47-2.35L0.47-2.35Q1.75-2.35 3.77-1.83L3.77-1.83Q4.37-2.93 4.93-4.45 5.49-5.96 6.22-8.29L6.22-8.29 6.88-10.3Q5.6-10.72 4.88-11.51 4.16-12.29 4.16-13.16L4.16-13.16Q4.16-13.99 4.77-14.7 5.39-15.4 6.36-15.4L6.36-15.4Q5.83-14.72 5.83-13.63L5.83-13.63Q5.83-12.82 6.21-12.2 6.59-11.59 7.19-11.22L7.19-11.22Q8.37-14.78 9.7-16.8 11.04-18.83 12.97-18.83L12.97-18.83Q14.07-18.83 14.97-18.16 15.88-17.5 15.88-16.01L15.88-16.01Q15.88-14.67 15.13-13.27 14.38-11.87 12.82-10.91 11.25-9.94 8.92-9.94L8.92-9.94Q7.98-7.09 7.14-5 6.3-2.9 5.34-1.41L5.34-1.41Q7.69-0.71 9.35-0.3 11.01 0.1 12.27 0.1L12.27 0.1Q12.87 0.1 13.4-0.03 13.94-0.16 14.57-0.47L14.57-0.47Q14.04 0.97 13.29 1.62 12.53 2.28 11.43 2.28L11.43 2.28ZM9.21-10.8Q10.62-10.91 11.72-11.91 12.82-12.92 13.43-14.27 14.04-15.61 14.04-16.63L14.04-16.63Q14.04-17.81 13.18-17.81L13.18-17.81Q12.14-17.81 11.25-16.05 10.36-14.28 9.21-10.8L9.21-10.8ZM1.02 0.42Q1.62 0.42 2.03 0.17 2.43-0.08 2.96-0.63L2.96-0.63Q1.1-1.31 0.21-1.31L0.21-1.31Q-0.26-1.31-0.5-1.14-0.73-0.97-0.73-0.68L-0.73-0.68Q-0.73-0.24-0.21 0.09 0.31 0.42 1.02 0.42L1.02 0.42ZM17.55 0.78Q16.69 0.78 16.11-0.03 15.54-0.84 15.54-1.94L15.54-1.94Q15.54-2.88 15.95-4.29 16.37-5.7 16.93-6.75 17.5-7.79 17.92-7.79L17.92-7.79Q18.1-7.79 18.48-7.6 18.86-7.4 19.14-7.11L19.14-7.11Q18.6-6.3 18.01-4.79 17.42-3.27 17.42-2.17L17.42-2.17Q17.42-1.67 17.56-1.14 17.71-0.6 18.2-0.6L18.2-0.6Q19.17-0.6 20.52-2.76 21.86-4.92 22.83-7.14L22.83-7.14Q24.4-6.88 24.4-6.25L24.4-6.25Q24.4-6.2 24.09-5.49L24.09-5.49Q23.54-4.21 23.15-3.11 22.75-2.01 22.75-1.2L22.75-1.2Q22.75-0.29 23.46-0.29L23.46-0.29Q24.01-0.29 24.78-0.8 25.55-1.31 26.36-2.26 27.17-3.22 27.78-4.47L27.78-4.47 28.17-4.16Q27.59-2.75 26.68-1.62 25.76-0.5 24.7 0.14 23.64 0.78 22.68 0.78L22.68 0.78Q21.52 0.78 21.2-0.01 20.87-0.81 20.87-2.14L20.87-2.14Q19.98-0.78 19.2 0 18.41 0.78 17.55 0.78L17.55 0.78ZM30.05 1.46Q28.64 1.46 27.79 0.59 26.94-0.29 26.94-1.99L26.94-1.99Q26.94-3.66 27.79-5.26 28.64-6.85 30-7.85 31.36-8.84 32.74-8.84L32.74-8.84Q33.79-8.84 34.3-8.32 34.81-7.79 34.81-7.01L34.81-7.01Q34.81-6.22 34.43-5.56 34.05-4.89 33.5-4.89L33.5-4.89Q33.01-4.89 32.69-5.39L32.69-5.39Q33.01-5.6 33.27-6.12 33.53-6.64 33.53-7.35L33.53-7.35Q33.53-7.79 33.03-7.79L33.03-7.79Q32.2-7.79 31.23-6.8 30.26-5.81 29.61-4.39 28.95-2.98 28.95-1.83L28.95-1.83Q28.95-0.99 29.37-0.43 29.79 0.13 30.81 0.13L30.81 0.13Q31.8 0.13 32.89-0.44 33.97-1.02 34.92-2.08 35.86-3.14 36.41-4.52L36.41-4.52 36.93-4.05Q36.3-2.48 35.19-1.23 34.08 0.03 32.72 0.75 31.36 1.46 30.05 1.46L30.05 1.46ZM44.1 0.99Q43.08 0.99 42.37 0.17 41.66-0.65 41.32-1.8 40.98-2.96 40.98-3.87L40.98-3.87Q44.36-4.63 44.36-6.2L44.36-6.2Q44.36-6.67 44.06-6.96 43.76-7.24 43.21-7.24L43.21-7.24Q41.61-7.24 40.39-5.22 39.18-3.19 38.18-0.52L38.18-0.52Q37.9 0.26 37.64 0.54 37.37 0.81 36.88 0.81L36.88 0.81Q36.46 0.81 36.16 0.44 35.86 0.08 35.86-1.15L35.86-1.15Q35.86-4.16 37.4-8.3 38.94-12.45 40.93-15.56 42.92-18.67 43.96-18.67L43.96-18.67Q44.41-18.67 44.71-18.12 45.01-17.58 45.01-16.76L45.01-16.76Q45.01-15.59 44.32-14.06 43.62-12.53 42.38-11.12 41.14-9.7 39.6-8.79L39.6-8.79Q38.92-7.17 38.5-5.51 38.08-3.84 37.98-2.48L37.98-2.48Q40.8-8.97 43.78-8.97L43.78-8.97Q44.83-8.97 45.61-8.23 46.4-7.48 46.4-6.41L46.4-6.41Q46.4-5.44 45.74-4.75 45.09-4.05 44.2-3.7 43.31-3.35 42.63-3.32L42.63-3.32Q42.89-2.12 43.35-1.19 43.81-0.26 44.7-0.26L44.7-0.26Q45.64-0.26 46.68-1.5 47.73-2.75 48.59-4.66L48.59-4.66 48.96-4.21Q48.23-2.09 46.87-0.55 45.51 0.99 44.1 0.99L44.1 0.99ZM40.36-10.57Q41.64-11.69 42.7-13.27 43.76-14.86 43.78-16.22L43.78-16.22Q43.36-16.03 42.34-14.38 41.32-12.74 40.36-10.57L40.36-10.57ZM53.07-11.01Q52.52-11.01 52.14-11.27 51.76-11.53 51.76-12.03L51.76-12.03Q51.76-12.63 52.43-13.09 53.09-13.55 53.85-13.55L53.85-13.55Q54.98-13.55 54.98-12.58L54.98-12.58Q54.98-12.03 54.37-11.52 53.77-11.01 53.07-11.01L53.07-11.01ZM49.98 0.78Q48.88 0.78 48.28 0.13 47.68-0.52 47.68-1.54L47.68-1.54Q47.68-2.59 48.27-4.38 48.86-6.17 49.76-7.53 50.66-8.89 51.58-8.89L51.58-8.89Q51.92-8.89 52.14-8.7 52.36-8.5 52.36-8.13L52.36-8.13Q52.36-7.9 52.15-7.49 51.94-7.09 51.47-6.33L51.47-6.33Q50.63-4.94 50.15-3.88 49.67-2.82 49.67-1.88L49.67-1.88Q49.67-1.07 49.95-0.78 50.24-0.5 50.84-0.5L50.84-0.5Q52.91-0.5 54.95-4.5L54.95-4.5 55.34-4.08Q54.43-1.78 53.01-0.5 51.6 0.78 49.98 0.78L49.98 0.78ZM63.08 0.52Q62.09 0.52 61.54 0.03 60.99-0.47 60.99-1.28L60.99-1.28Q60.99-1.62 61.11-2.07 61.23-2.51 61.36-2.96L61.36-2.96Q61.72-4.16 61.72-4.73L61.72-4.73Q61.72-5.26 61.46-5.51 61.2-5.75 60.81-5.75L60.81-5.75Q59.42-5.75 58.01-4.01 56.6-2.28 54.98 0.39L54.98 0.39Q53.85 0.39 53.28-0.37L53.28-0.37 53.51-1.02Q55.05-4.76 55.05-6.56L55.05-6.56Q55.26-6.8 55.66-7 56.05-7.19 56.41-7.19L56.41-7.19Q56.86-7.19 57.09-6.98 57.33-6.77 57.33-6.41L57.33-6.41Q57.33-5.7 56.88-4.08L56.88-4.08Q58.06-5.65 59.33-6.64 60.6-7.64 61.83-7.64L61.83-7.64Q62.87-7.64 63.45-6.92 64.02-6.2 64.02-5.2L64.02-5.2Q64.02-4.63 63.88-4.11 63.74-3.58 63.45-2.93L63.45-2.93Q63-1.83 63-1.28L63-1.28Q63-0.89 63.19-0.71 63.37-0.52 63.63-0.52L63.63-0.52Q64.5-0.52 65.5-1.71 66.51-2.9 67.32-4.52L67.32-4.52 67.76-4.16Q66.82-1.99 65.69-0.73 64.55 0.52 63.08 0.52L63.08 0.52ZM67.95 7.32Q67.22 7.32 66.69 6.89 66.17 6.46 66.17 5.65L66.17 5.65Q66.17 4.63 66.94 3.79 67.71 2.96 68.73 2.37 69.75 1.78 71.43 0.99L71.43 0.99Q72.08-0.65 72.47-2.28L72.47-2.28Q70.35 0.39 68.5 0.39L68.5 0.39Q67.45 0.39 66.84-0.34 66.22-1.07 66.22-2.28L66.22-2.28Q66.22-4.03 67.37-5.6 68.52-7.17 70.22-8.12 71.92-9.08 73.47-9.08L73.47-9.08Q74.28-9.08 74.71-8.79 75.14-8.5 75.14-8.08L75.14-8.08Q75.14-7.82 74.98-7.61 74.83-7.4 74.72-7.38L74.72-7.38Q74.46-7.64 74.2-7.74 73.94-7.85 73.54-7.85L73.54-7.85Q72.26-7.85 71.06-6.89 69.86-5.94 69.11-4.59 68.37-3.24 68.37-2.17L68.37-2.17Q68.37-1.65 68.59-1.37 68.81-1.1 69.18-1.1L69.18-1.1Q69.88-1.1 70.92-2.01 71.95-2.93 72.97-4.37L72.97-4.37Q73.26-5.83 73.65-6.47 74.04-7.11 74.77-7.11L74.77-7.11Q75.11-7.11 75.53-7.01L75.53-7.01Q75.53-6.33 74.96-4.29 74.38-2.25 73.57-0.05L73.57-0.05Q74.88-0.6 76.09-1.77 77.31-2.93 77.83-4.45L77.83-4.45 78.3-3.98Q77.73-2.33 76.25-0.99 74.77 0.34 73.23 1.05L73.23 1.05Q72.03 3.95 70.73 5.64 69.44 7.32 67.95 7.32L67.95 7.32ZM67.84 6.12Q68.37 6.12 69.2 5.15 70.04 4.18 70.93 2.22L70.93 2.22Q69.23 3.06 68.29 3.81 67.35 4.55 67.35 5.39L67.35 5.39Q67.35 5.73 67.49 5.92 67.63 6.12 67.84 6.12L67.84 6.12Z" transform="translate(1.6700000762939453, 18.829999923706055)"></path>
                    </g>
                    <defs>
                        <filter id="text-effect-sticker-shadow-XtoeZqZdqXl0JO6v4-JfZ" filterUnits="objectBoundingBox" width="2" height="2" x="-0.2" y="-0.2">
                            <feDropShadow dx="0" dy="3" stdDeviation="0" flood-color="#EC3E21" flood-opacity="1"></feDropShadow>
                            <feDropShadow dx="0" dy="1" stdDeviation="0" flood-color="#F2A917" flood-opacity="1"></feDropShadow>
                            <feDropShadow dx="0" dy="3" stdDeviation="0" flood-color="#107477" flood-opacity="1"></feDropShadow>
                        </filter>
                    </defs>
                </g>
            </g>
        </g>
    </g>
</svg>